<?xml version="1.0" encoding="UTF-8" standalone="no"?>
<!-- Created with Inkscape (http://www.inkscape.org/) -->

<svg
   xmlns:dc="http://purl.org/dc/elements/1.1/"
   xmlns:cc="http://creativecommons.org/ns#"
   xmlns:rdf="http://www.w3.org/1999/02/22-rdf-syntax-ns#"
   xmlns:svg="http://www.w3.org/2000/svg"
   xmlns="http://www.w3.org/2000/svg"
   xmlns:sodipodi="http://sodipodi.sourceforge.net/DTD/sodipodi-0.dtd"
   xmlns:inkscape="http://www.inkscape.org/namespaces/inkscape"
   width="100"
   height="100"
   viewBox="0 0 100 100"
   id="svg2"
   version="1.1"
   inkscape:version="0.91 r13725"
   sodipodi:docname="loadblemish.svg">
  <defs
     id="defs4" />
  <sodipodi:namedview
     id="base"
     pagecolor="#ffffff"
     bordercolor="#666666"
     borderopacity="1.0"
     inkscape:pageopacity="0.0"
     inkscape:pageshadow="2"
     inkscape:zoom="1.979899"
     inkscape:cx="45.621142"
     inkscape:cy="42.493094"
     inkscape:document-units="px"
     inkscape:current-layer="layer1"
     showgrid="false"
     units="px"
     inkscape:window-width="1366"
     inkscape:window-height="744"
     inkscape:window-x="0"
     inkscape:window-y="24"
     inkscape:window-maximized="1" />
  <metadata
     id="metadata7">
    <rdf:RDF>
      <cc:Work
         rdf:about="">
        <dc:format>image/svg+xml</dc:format>
        <dc:type
           rdf:resource="http://purl.org/dc/dcmitype/StillImage" />
        <dc:title></dc:title>
      </cc:Work>
    </rdf:RDF>
  </metadata>
  <g
     inkscape:label="Layer 1"
     inkscape:groupmode="layer"
     id="layer1"
     transform="translate(0,-952.36216)">
    <text
       xml:space="preserve"
       style="font-style:normal;font-variant:normal;font-weight:normal;font-stretch:normal;font-size:12px;line-height:125%;font-family:'EB Garamond';-inkscape-font-specification:'EB Garamond';letter-spacing:0px;word-spacing:0px;fill:#000000;fill-opacity:1;stroke:none;stroke-width:1px;stroke-linecap:butt;stroke-linejoin:miter;stroke-opacity:1"
       x="39.901028"
       y="970.53979"
       id="text4144"
       sodipodi:linespacing="125%"><tspan
         sodipodi:role="line"
         id="tspan4146"
         x="39.901028"
         y="970.53979" /></text>
    <path
       style="fill:none;fill-rule:evenodd;stroke:#000000;stroke-width:1px;stroke-linecap:butt;stroke-linejoin:miter;stroke-opacity:1"
       d="m 93.439111,991.75301 c 0,0.84179 0,1.68358 0,2.52538 0,1.34687 0.09596,2.69716 0,4.04061 -0.07296,1.02147 -0.336718,2.0203 -0.505076,3.0305 -0.168359,1.5152 -0.42051,3.0235 -0.505077,4.5457 -0.08405,1.5129 0,3.0304 0,4.5457 0,1.3468 0,2.6937 0,4.0406 0,1.9984 -0.319438,2.8966 0.505077,4.5457 0.106479,0.2129 0.336717,0.3367 0.505076,0.505"
       id="path4148"
       inkscape:connector-curvature="0" />
    <path
       style="fill:none;fill-rule:evenodd;stroke:#000000;stroke-width:1px;stroke-linecap:butt;stroke-linejoin:miter;stroke-opacity:1"
       d="m 70.205602,1001.8546 c -3.338704,0 -7.319096,-0.1525 -10.606601,0.505 -4.127432,0.8255 -5.714518,2.3153 -9.59645,4.0406 -1.314479,0.5843 -2.69374,1.0102 -4.04061,1.5153 -1.34687,0.5051 -2.675969,1.0603 -4.04061,1.5152 -1.162773,0.3876 -2.364064,0.6497 -3.535534,1.0102 -1.017708,0.3131 -2.020305,0.6734 -3.030458,1.0101 -1.010152,0.3367 -2.020305,0.6734 -3.030457,1.0102 -0.505076,0.1683 -1.052979,0.2409 -1.515229,0.505 -0.730882,0.4177 -1.251064,1.1734 -2.020305,1.5153 -6.553301,2.9125 0.616177,-1.5893 -4.04061,1.5152"
       id="path4150"
       inkscape:connector-curvature="0" />
    <path
       style="fill:none;fill-rule:evenodd;stroke:#000000;stroke-width:1px;stroke-linecap:butt;stroke-linejoin:miter;stroke-opacity:1"
       d="m 18.182746,1034.6845 c -2.107914,0.6594 -4.469946,0.8983 -6.565992,0 -1.226182,-0.5255 -2.7827538,-2.1701 -3.5355338,-3.0304 -0.5543251,-0.6336 -1.219655,-1.2322 -1.515229,-2.0204 -0.236459,-0.6305 0.06097,-1.3496 0,-2.0203 -0.10778,-1.1855 -0.336717,-2.357 -0.505076,-3.5355"
       id="path4152"
       inkscape:connector-curvature="0" />
    <path
       style="fill:none;fill-rule:evenodd;stroke:#000000;stroke-width:1px;stroke-linecap:butt;stroke-linejoin:miter;stroke-opacity:1"
       d="m 32.829958,974.58041 c 3.16802,1.58401 3.113992,1.02786 5.050763,4.04061 0.937327,1.45807 1.485366,3.159 2.525381,4.54569 1,1.33333 2.505832,2.225 3.535534,3.53553 5.582076,7.10446 -2.055442,-0.0351 5.050763,7.07107 3.664118,3.66412 7.648729,6.92689 12.626907,8.58629 1.472537,0.4909 3.058957,0.5642 4.545686,1.0102 1.887482,0.5662 3.61,1.709 5.555839,2.0203 2.32742,0.3724 4.714045,0 7.071068,0"
       id="path4154"
       inkscape:connector-curvature="0" />
    <path
       style="fill:none;fill-rule:evenodd;stroke:#000000;stroke-width:1px;stroke-linecap:butt;stroke-linejoin:miter;stroke-opacity:1"
       d="m 83.842662,982.15656 c -0.841794,0 -1.734269,-0.28768 -2.525382,0 -1.140958,0.41489 -2.032273,1.32925 -3.030457,2.0203 -1.190762,0.82438 -2.471335,1.54305 -3.535534,2.52538 -12.336106,11.38718 6.443549,-4.14774 -6.565992,6.56599 -1.664315,1.37062 -3.284462,2.80421 -5.050763,4.04061 -10.575326,7.40276 0.518845,-1.77924 -10.101525,7.07106 -3.397736,2.8315 -4.605922,4.7794 -9.091373,6.061 -2.407951,0.6879 -9.302116,0.505 -11.616754,0.505 -8.257976,0 -4.38819,0.2178 -11.616754,-0.505"
       id="path4156"
       inkscape:connector-curvature="0" />
    <path
       style="fill:none;fill-rule:evenodd;stroke:#000000;stroke-width:1px;stroke-linecap:butt;stroke-linejoin:miter;stroke-opacity:1"
       d="m 6.0609155,965.99412 c 1.010152,-0.33672 1.9910191,-0.77917 3.0304571,-1.01015 0.493049,-0.10957 1.0101534,0 1.5152294,0 0.673435,0 1.34687,0 2.020305,0 3.198817,0 6.397633,0 9.59645,0 1.010152,0 2.023794,-0.0839 3.030457,0 1.107784,0.0923 4.347823,0.76854 5.555839,1.01015 0.841794,0.16836 1.743864,0.14984 2.525382,0.50507 2.881001,-1.49776 2.240155,1.8777 3.535533,2.52539 0.810924,0.40546 1.738198,0.56033 2.525382,1.01015 0.413449,0.23625 0.673435,0.67343 1.010152,1.01015 0.505077,0.50508 1.010153,1.01015 1.515229,1.51523 1.944461,1.94446 0.920907,1.11901 3.030458,2.52538"
       id="path4158"
       inkscape:connector-curvature="0" />
    <path
       style="fill:none;fill-rule:evenodd;stroke:#000000;stroke-width:1px;stroke-linecap:butt;stroke-linejoin:miter;stroke-opacity:1"
       d="m 89.398501,973.57026 c 0,2.52538 0,5.05076 0,7.57614 0,1.01016 0.05932,2.02205 0,3.03046 -0.109199,1.85638 -0.05406,3.75178 -0.505077,5.55584 -0.402158,1.60863 -1.367131,3.02161 -2.020305,4.54569 -0.999865,2.33302 -3.76485,9.27871 -5.050762,11.61681 -2.582091,4.6947 -6.358851,8.3791 -10.101526,12.1218 -0.897823,0.8978 -4.099476,4.3226 -5.555839,5.0508 -0.451754,0.2258 -1.010152,0 -1.515229,0"
       id="path4160"
       inkscape:connector-curvature="0" />
    <path
       style="fill:none;fill-rule:evenodd;stroke:#000000;stroke-width:1px;stroke-linecap:butt;stroke-linejoin:miter;stroke-opacity:1"
       d="m 47.982246,1020.5424 c -0.673435,0 -1.431616,-0.3271 -2.020305,0 -1.040663,0.5781 -1.621504,1.7506 -2.525381,2.5253 -0.285831,0.245 -0.673435,0.3368 -1.010153,0.5051 -0.673435,0.3367 -1.374678,0.6228 -2.020305,1.0102 -0.204165,0.1225 -0.271604,0.4584 -0.505076,0.5051 -0.660357,0.132 -1.34687,0 -2.020305,0 -0.750374,0 -1.392281,0.1229 -2.020305,-0.5051 -0.595238,-0.5953 -1.010153,-1.3469 -1.515229,-2.0203"
       id="path4162"
       inkscape:connector-curvature="0" />
    <path
       style="fill:none;fill-rule:evenodd;stroke:#000000;stroke-width:1px;stroke-linecap:butt;stroke-linejoin:miter;stroke-opacity:1"
       d="m 21.213204,987.20732 c 0,-1.01015 0,-2.0203 0,-3.03046 0,-0.16835 -0.119048,-0.38602 0,-0.50507 0.266199,-0.2662 0.65301,-0.38603 1.010153,-0.50508 0.159719,-0.0532 0.339986,-0.033 0.505076,0 3.620431,0.72409 0.653716,-0.0683 3.535534,2.52538 1.102455,0.99221 5.198224,3.59877 6.565991,4.54569 1.190762,0.82437 2.367637,1.66892 3.535534,2.52538 1.357654,0.99561 2.589469,2.17685 4.04061,3.03046 1.429209,0.84067 3.045369,1.31427 4.545687,2.02027 11.737856,5.52371 -4.178083,-1.6324 8.586296,4.04061"
       id="path4164"
       inkscape:connector-curvature="0" />
    <path
       style="fill:none;fill-rule:evenodd;stroke:#000000;stroke-width:1px;stroke-linecap:butt;stroke-linejoin:miter;stroke-opacity:1"
       d="m 77.27667,1008.4206 c 2.905903,-0.6074 5.298822,0.6623 8.08122,1.0101 0.501177,0.063 1.010153,0 1.515229,0 1.178512,0 2.357023,0 3.535534,0 1.632894,0 3.579285,0.3358 5.050763,-0.5051 0.730882,-0.4176 1.34687,-1.0101 2.020303,-1.5152"
       id="path4166"
       inkscape:connector-curvature="0" />
    <path
       style="fill:none;fill-rule:evenodd;stroke:#000000;stroke-width:1px;stroke-linecap:butt;stroke-linejoin:miter;stroke-opacity:1"
       d="m 91.923882,979.63118 c -3.487654,0.0861 -6.287847,-0.5169 -9.596449,1.01015 -1.10231,0.50876 -1.9965,1.38402 -3.030458,2.0203 -3.915117,2.40931 -3.36769,1.58299 -7.071068,4.54569 -1.397503,1.118 -2.651616,2.40698 -4.04061,3.53553 -2.699466,2.19332 -6.994895,5.04764 -9.596449,7.07107 -1.225225,0.95295 -2.357023,2.02035 -3.535534,3.03048 -1.178511,1.0102 -2.400796,1.9714 -3.535534,3.0305 -1.842625,1.7198 -4.736545,5.0652 -7.071068,6.566 -5.126491,2.5632 -2.78767,1.185 -7.071067,4.0406"
       id="path4168"
       inkscape:connector-curvature="0" />
    <path
       style="fill:none;fill-rule:evenodd;stroke:#000000;stroke-width:1px;stroke-linecap:butt;stroke-linejoin:miter;stroke-opacity:1"
       d="m 10.101526,1012.4611 c -0.3367184,-0.6734 -0.7305244,-1.3212 -1.0101534,-2.0203 -0.06253,-0.1563 0,-0.3367 0,-0.505 0,-0.6735 0,-1.3469 0,-2.0203 0,-2.6541 0.323762,-4.5938 -1.010152,-7.0711 -0.6234051,-1.15783 -1.7610971,-1.96053 -2.5253811,-3.03051 -0.923177,-1.2924 -1.683588,-2.69371 -2.525382,-4.04058"
       id="path4170"
       inkscape:connector-curvature="0" />
    <path
       style="fill:none;fill-rule:evenodd;stroke:#000000;stroke-width:1px;stroke-linecap:butt;stroke-linejoin:miter;stroke-opacity:1"
       d="m 44.951789,989.22762 c 3.535534,0 7.071068,0 10.606601,0 1.936104,0 4.181712,-0.16606 6.060916,0.50508 3.719648,1.32845 4.116812,2.444 7.576144,4.04061 0.96679,0.44621 2.036636,0.62791 3.030457,1.01015 1.196719,0.46028 2.311717,1.13279 3.535534,1.51523 1.481536,0.46298 3.044602,0.61513 4.545687,1.01016 1.699843,0.44732 3.327179,1.17051 5.050763,1.51522 1.659127,0.3318 3.37083,0.3035 5.050762,0.5051 10.643027,1.27713 4.184441,1.01013 13.637057,1.01013"
       id="path4172"
       inkscape:connector-curvature="0" />
    <path
       style="fill:none;fill-rule:evenodd;stroke:#000000;stroke-width:1px;stroke-linecap:butt;stroke-linejoin:miter;stroke-opacity:1"
       d="m 81.822356,972.56011 c -2.449162,2.93899 -2.25697,2.23792 -3.535534,5.05076 -0.53057,1.16725 -0.907346,2.40661 -1.515229,3.53553 -0.575581,1.06894 -1.448986,1.95924 -2.020305,3.03046 -4.524593,8.48366 0.749673,0.45716 -4.545686,10.60666 -12.63424,24.21558 5.560814,-13.64748 -6.565992,11.61668 -2.249055,4.6856 -4.360059,9.4362 -6.565991,14.1422 -1.342558,2.8641 -2.512553,5.8167 -4.04061,8.5863 -1.172963,2.126 -2.85423,3.9423 -4.040611,6.0609 -1.059725,1.8923 -3.885038,8.6137 -5.050762,11.1117 -1.665814,3.5696 -1.515229,1.8301 -1.515229,4.0406"
       id="path4174"
       inkscape:connector-curvature="0" />
    <path
       style="fill:none;fill-rule:evenodd;stroke:#000000;stroke-width:1px;stroke-linecap:butt;stroke-linejoin:miter;stroke-opacity:1"
       d="m 32.324882,1044.786 c -0.673435,-1.0101 -1.417966,-1.9763 -2.020305,-3.0304 -0.123896,-0.2168 0.0495,-2.585 0,-3.0305 -0.131466,-1.1832 -0.237386,-2.3755 -0.505076,-3.5355 -0.239429,-1.0375 -0.673435,-2.0203 -1.010153,-3.0305 -0.505076,-1.5152 -1.064555,-3.0134 -1.515229,-4.5457 -0.391737,-1.3319 -0.673435,-2.6937 -1.010152,-4.0406"
       id="path4176"
       inkscape:connector-curvature="0" />
    <path
       style="fill:none;fill-rule:evenodd;stroke:#000000;stroke-width:1px;stroke-linecap:butt;stroke-linejoin:miter;stroke-opacity:1"
       d="m 18.182746,990.23778 c 1.256186,-1.10747 2.947606,-2.16928 4.040611,-3.53554 0.379206,-0.474 0.615105,-1.05434 1.010152,-1.51522 0.619801,-0.72311 1.34687,-1.34687 2.020305,-2.02031 2.445021,-2.44502 0.9665,-1.05795 4.545687,-4.04061"
       id="path4178"
       inkscape:connector-curvature="0" />
    <path
       style="fill:none;fill-rule:evenodd;stroke:#000000;stroke-width:1px;stroke-linecap:butt;stroke-linejoin:miter;stroke-opacity:1"
       d="m 66.670068,973.57026 c 1.08918,-0.29217 2.407079,0.16121 3.535534,0 0.849837,-0.1214 1.692549,-0.29687 2.525382,-0.50508 0.516501,-0.12912 0.998727,-0.37595 1.515228,-0.50507 0.832833,-0.20821 1.721576,-0.20365 2.525382,-0.50508 0.568376,-0.21314 0.972288,-0.73868 1.515229,-1.01015 0.810923,-0.40546 1.683587,-0.67344 2.525381,-1.01015"
       id="path4180"
       inkscape:connector-curvature="0" />
    <path
       style="fill:none;fill-rule:evenodd;stroke:#000000;stroke-width:1px;stroke-linecap:butt;stroke-linejoin:miter;stroke-opacity:1"
       d="m 81.31728,958.92305 c -1.178511,0 -2.427976,-0.40275 -3.535534,0 -1.774378,0.64523 -2.833038,3.74613 -3.535534,5.05076 -2.154097,4.00047 -2.075998,3.68607 -5.050762,7.57615 -1.166052,1.52483 -2.369482,3.02084 -3.535534,4.54568 -1.022696,1.33737 -1.927825,2.76834 -3.030458,4.04061 -1.091551,1.25948 -2.357022,2.35702 -3.535534,3.53554 -1.178511,1.17851 -2.357022,2.35702 -3.535534,3.53553 -1.34687,1.34687 -2.69374,2.69374 -4.04061,4.04061 -1.010152,1.01015 -1.980738,2.06149 -3.030457,3.03046 -1.140556,1.05282 -2.229865,2.1911 -3.535534,3.03045 -1.078544,0.69335 -2.357023,1.01016 -3.535534,1.51523"
       id="path4182"
       inkscape:connector-curvature="0" />
    <path
       style="fill:none;fill-rule:evenodd;stroke:#000000;stroke-width:1px;stroke-linecap:butt;stroke-linejoin:miter;stroke-opacity:1"
       d="m 13.131984,987.20732 c -0.558399,-0.74453 -1.66769,-1.97261 -2.020305,-3.03046 -0.05324,-0.15972 0,-0.33671 0,-0.50507 0,-0.33672 0,-0.67344 0,-1.01015 0,-1.17852 0,-2.35703 0,-3.53554"
       id="path4184"
       inkscape:connector-curvature="0" />
    <path
       style="fill:none;fill-rule:evenodd;stroke:#000000;stroke-width:1px;stroke-linecap:butt;stroke-linejoin:miter;stroke-opacity:1"
       d="m 23.738585,953.87229 c 1.515229,0 3.030458,0 4.545687,0 0.505076,0 1.025233,-0.1225 1.515228,0 0.634413,0.1586 3.86537,1.54408 4.545687,2.0203 1.077228,0.75406 1.936375,1.79599 3.030458,2.52538 0.939705,0.62647 2.080443,0.90451 3.030457,1.51523 7.982454,5.13158 0.49765,1.10671 7.071068,5.05076 5.59521,3.35713 4.281175,2.31857 11.111678,5.05077 8.87023,3.54809 3.09361,1.78355 12.121831,4.04061"
       id="path4186"
       inkscape:connector-curvature="0" />
    <path
       style="fill:none;fill-rule:evenodd;stroke:#000000;stroke-width:1px;stroke-linecap:butt;stroke-linejoin:miter;stroke-opacity:1"
       d="m 96.974645,975.59057 c -1.49938,0 -3.127204,-0.20417 -4.545687,0.50507 -0.425917,0.21296 -0.700252,0.6486 -1.010152,1.01015 -5.901709,6.88533 1.168073,-1.54692 -3.030458,5.05077 -0.70595,1.10935 -1.862829,1.89465 -2.525381,3.03046 -0.536519,0.91974 -0.533962,2.07807 -1.010153,3.03045 -0.54294,1.08588 -1.511546,1.92815 -2.020305,3.03046 -0.513627,1.11286 -0.462016,2.43926 -1.010152,3.53553 -0.814411,1.62883 -1.998765,3.04505 -3.030458,4.54571 -3.190483,4.64073 -2.03524,2.87953 -6.060915,7.57613 -3.309428,3.861 -1.316506,2.1238 -4.545687,4.5457"
       id="path4188"
       inkscape:connector-curvature="0" />
    <path
       style="fill:none;fill-rule:evenodd;stroke:#000000;stroke-width:1px;stroke-linecap:butt;stroke-linejoin:miter;stroke-opacity:1"
       d="m 37.375645,1010.4408 c -1.958824,0.9897 -4.049216,1.6633 -6.060916,2.5254 -1.178511,0.5051 -1.088349,0.7228 -2.525381,1.0102 -0.330179,0.066 -0.673435,0 -1.010152,0 -0.505077,0 -1.010153,0 -1.515229,0 -0.505077,0 -1.014053,0.063 -1.515229,0 -1.392897,-0.1741 -3.863278,-0.7236 -5.050763,-1.5153 -1.291501,-0.861 -2.357022,-2.0203 -3.535534,-3.0304"
       id="path4190"
       inkscape:connector-curvature="0" />
    <path
       style="fill:none;fill-rule:evenodd;stroke:#000000;stroke-width:1px;stroke-linecap:butt;stroke-linejoin:miter;stroke-opacity:1"
       d="m 5.555839,998.82407 c 0.6031244,0.2413 3.4353836,1.173 4.0406106,2.02033 6.3723444,8.9213 -4.8676154,-4.1905 2.5253814,5.0508 0.743684,0.9296 1.842688,1.5501 2.525381,2.5254 0.519924,0.7427 0.630218,1.7021 1.010153,2.5253 1.384991,3.0008 2.456314,4.5184 3.535534,7.5762 0.917633,2.5999 1.87602,6.3316 2.525381,9.0914 0.355513,1.5109 0.610211,3.0459 1.010153,4.5456 0.780939,2.9286 2.194792,5.3998 3.535534,8.0813 2.566935,1.3847 5.365829,2.043 8.08122,3.0304 0.07398,0.027 5.037148,2.0176 5.050763,2.0203 0.825446,0.1651 1.687044,-0.076 2.525381,0 2.895002,0.2632 5.688064,1.2923 8.586297,1.5152 1.17504,0.09 2.357022,0 3.535534,0 2.69374,0 5.38748,0 8.08122,0 7.576144,0 15.152288,0 22.728432,0"
       id="path4192"
       inkscape:connector-curvature="0" />
    <flowRoot
       xml:space="preserve"
       id="flowRoot4136"
       style="font-style:normal;font-variant:normal;font-weight:normal;font-stretch:normal;font-size:12px;line-height:125%;font-family:'EB Garamond';-inkscape-font-specification:'EB Garamond';letter-spacing:0px;word-spacing:0px;fill:#ff0000;fill-opacity:1;stroke:none;stroke-width:1px;stroke-linecap:butt;stroke-linejoin:miter;stroke-opacity:1"
       transform="matrix(8.1791778,0,0,8.1791778,28.172614,930.34488)"><flowRegion
         id="flowRegion4138"><rect
           id="rect4140"
           width="142.4315"
           height="126.77415"
           x="-0.50507629"
           y="1.5101268"
           style="fill:#ff0000;fill-opacity:1" /></flowRegion><flowPara
         id="flowPara4142">B</flowPara></flowRoot>    <path
       style="fill:none;fill-rule:evenodd;stroke:#000000;stroke-width:1px;stroke-linecap:butt;stroke-linejoin:miter;stroke-opacity:1"
       d="m 84.34774,1036.7048 c 2.729541,-1.6377 1.83122,-0.8211 3.030461,-2.0203 0.16835,-0.1684 0.39859,-0.2921 0.50507,-0.5051 0.2381,-0.4762 0.31814,-1.0167 0.50508,-1.5152 1.81182,-4.8315 0.3688,-0.6013 1.51523,-4.0406"
       id="path4194"
       inkscape:connector-curvature="0" />
    <path
       style="fill:none;fill-rule:evenodd;stroke:#000000;stroke-width:1px;stroke-linecap:butt;stroke-linejoin:miter;stroke-opacity:1"
       d="m 87.378195,1014.9865 3.535534,29.7995"
       id="path4196"
       inkscape:connector-curvature="0" />
  </g>
</svg>
